# xmcd CD database file
#
# Track frame offsets:
#	150
#	93552
#	128095
#	160617
#	175275
#	187630
#	197107
#	202545
#	218895
#	224967
#	236742
#	268900
#	283267
#	317962
#
# Disc length: 4335 seconds
#
# Revision: 1
# Processed by: cddbd v1.5PL3 Copyright (c) Steve Scherf et al.
# Submitted via: CDex 1.51
#
DISCID=d710ed0e
DTITLE=Various Artist - チャイコフスキー その名曲の数々
DYEAR=1994
DGENRE=Classical
TTITLE0=ピアノ協奏曲第1番変ロ短調 作品23 第1楽章
TTITLE1=第2楽章
TTITLE2=第3楽章
TTITLE3=くるみ割り人形 バレエ組曲 作品71a 小序曲
TTITLE4=行進曲
TTITLE5=こんぺい糖の踊り
TTITLE6=ロシアの踊り「トレパーク」
TTITLE7=アラビアの踊り
TTITLE8=中国の踊り
TTITLE9=あし笛の踊り
TTITLE10=花のワルツ
TTITLE11=白鳥の湖 バレエ 作品20より 情景
TTITLE12=ワルツ
TTITLE13=白鳥の踊り
EXTD=YEAR: 1994
EXTT0=
EXTT1=
EXTT2=
EXTT3=
EXTT4=
EXTT5=
EXTT6=
EXTT7=
EXTT8=
EXTT9=
EXTT10=
EXTT11=
EXTT12=
EXTT13=
PLAYORDER=
